<?xml version="1.0" encoding="utf-8"?>
<!-- Generator: Adobe Illustrator 22.0.1, SVG Export Plug-In . SVG Version: 6.00 Build 0)  -->
<svg version="1.1" id="Layer_1" xmlns="http://www.w3.org/2000/svg" xmlns:xlink="http://www.w3.org/1999/xlink" x="0px" y="0px"
	 viewBox="0 0 512 512" style="enable-background:new 0 0 512 512;" xml:space="preserve">
<style type="text/css">
	.st0{fill:#35216D;}
	.st1{fill:#EDF3FC;}
	.st2{fill:#330D84;}
	.st3{fill:#FFBE1B;}
	.st4{fill:#0061F3;}
	.st5{fill:#8C7BFD;}
	.st6{fill:#FFFFFF;}
	.st7{fill:#5932AE;}
	.st8{fill:#1C46C4;}
	.st9{fill:#6857E5;}
	.st10{fill:#5D8EF9;}
	.st11{fill:#8AC9F9;}
	.st12{fill:#FFE37B;}
	.st13{fill:#FFD000;}
	.st14{fill:#2EF39E;}
	.st15{fill:#330D84;stroke:#330D84;stroke-width:0.6306;stroke-linecap:round;stroke-linejoin:round;stroke-miterlimit:10;}
	.st16{fill:#FFFFFF;stroke:#FFFFFF;stroke-width:0.737;stroke-linecap:round;stroke-linejoin:round;stroke-miterlimit:10;}
	.st17{fill:none;}
	.st18{fill:#FDB813;}
</style>
<g>
	<g>
		<g>
			<path class="st1" d="M255.999,40.928c-118.778,0-215.071,96.294-215.071,215.074c0,118.776,96.292,215.068,215.071,215.068
				S471.07,374.778,471.07,256.002C471.07,137.222,374.777,40.928,255.999,40.928z"/>
		</g>
	</g>
	<g>
		<g>
			<path class="st1" d="M255.999,1C115.391,1,1,115.392,1,256.002C1,396.609,115.391,511,255.999,511S511,396.609,511,256.002
				C511,115.392,396.607,1,255.999,1z M255.999,502.832c-136.103,0-246.83-110.728-246.83-246.83
				c0-136.104,110.727-246.833,246.83-246.833c136.102,0,246.832,110.729,246.832,246.833
				C502.831,392.104,392.101,502.832,255.999,502.832z"/>
		</g>
	</g>
	<path class="st10" d="M312.365,378.615H269.5v-26.579c-4.218,0.441-8.444,0.685-12.664,0.685c-4.794,0-9.579-0.287-14.336-0.853
		v26.747h-42.865c-10.879,0-19.698,8.819-19.698,19.698v9.302h152.125v-9.302C332.062,387.434,323.243,378.615,312.365,378.615z"/>
	<circle class="st3" cx="256.955" cy="229.658" r="91.667"/>
	<path class="st2" d="M352.138,213.012c-0.006-0.082,0.005-0.161-0.006-0.244c-0.039-0.313-0.113-0.612-0.206-0.902
		c-5.406-28.673-23.645-54.6-51.688-68.643c-28.052-14.048-59.75-13.115-85.952-0.257c-0.279,0.098-0.555,0.213-0.82,0.364
		c-0.07,0.04-0.126,0.095-0.194,0.138c-17.878,9.033-33.114,23.661-42.752,42.907c-9.637,19.244-12.223,40.204-8.747,59.929
		c0.006,0.082-0.005,0.161,0.006,0.244c0.039,0.315,0.114,0.616,0.207,0.907c5.408,28.67,23.645,54.596,51.687,68.638
		c13.641,6.831,28.367,10.281,43.19,10.281c10.266,0,20.581-1.656,30.606-4.991c24.5-8.15,44.361-25.354,55.922-48.441
		C353.027,253.698,355.613,232.737,352.138,213.012z M336.555,263.927l-31.966-16.007c4.949-10.549,8.7-21.022,11.262-31.062
		c7.423,1.388,14.609,2.118,21.375,2.118c1.93,0,3.824-0.062,5.683-0.179C344.818,233.723,342.87,249.283,336.555,263.927z
		 M205.772,254.479c9.221,2.411,18.723,5.839,28.06,10.189l-19.837,39.614C204.444,295.723,201.753,276.867,205.772,254.479z
		 M177.355,195.39l31.966,16.007c-4.948,10.546-8.697,21.016-11.26,31.054c-9.545-1.786-18.681-2.448-27.059-1.92
		C169.091,225.601,171.038,210.038,177.355,195.39z M218.274,215.88l31.972,16.01l-11.935,23.835
		c-10.167-4.766-20.424-8.484-30.391-11.069C210.301,235.324,213.751,225.59,218.274,215.88z M308.138,204.837
		c-9.221-2.411-18.723-5.839-28.06-10.188l19.837-39.614C309.465,163.593,312.157,182.449,308.138,204.837z M290.982,150.54
		l-19.846,39.633c-9.077-4.872-17.517-10.428-24.972-16.369c13.812-14.801,28.576-23.685,40.521-23.685
		C288.163,150.119,289.596,150.262,290.982,150.54z M266.656,199.118l-11.933,23.831l-31.97-16.009
		c5.064-9.434,10.784-18.038,16.827-25.533C247.623,187.842,256.747,193.83,266.656,199.118z M222.937,308.759l19.838-39.615
		c9.075,4.871,17.514,10.426,24.968,16.365C252.222,302.139,235.51,311.279,222.937,308.759z M247.253,260.198l11.933-23.831
		l31.972,16.01c-5.065,9.437-10.792,18.029-16.836,25.526C266.281,271.471,257.16,265.485,247.253,260.198z M263.664,227.427
		l11.933-23.83c10.169,4.766,20.425,8.477,30.394,11.063c-2.382,9.332-5.832,19.067-10.355,28.778L263.664,227.427z
		 M341.044,208.858c-7.09,0.319-14.878-0.301-23.051-1.816c2.679-14.661,2.655-28.058-0.053-38.963
		C329.356,179.4,337.255,193.588,341.044,208.858z M257.096,143c4.199,0,8.418,0.311,12.624,0.934
		c-10.352,4.367-21.095,12.372-31.227,23.298c-6.103-5.631-11.282-11.491-15.272-17.354C233.885,145.377,245.412,143,257.096,143z
		 M214.167,154.329c4.596,7.022,10.604,13.939,17.749,20.511c-6.501,8.063-12.638,17.338-18.118,27.616l-31.958-16.003
		C189.783,172.623,201.071,161.741,214.167,154.329z M172.866,250.458c7.091-0.32,14.879,0.3,23.05,1.815
		c-2.679,14.661-2.655,28.058,0.053,38.963C184.554,279.916,176.655,265.729,172.866,250.458z M284.312,311.894
		c-13.145,4.374-26.836,5.501-40.151,3.5c10.361-4.364,21.112-12.377,31.254-23.313c6.112,5.64,11.299,11.508,15.291,17.381
		C288.613,310.343,286.489,311.17,284.312,311.894z M299.773,305.034c-4.601-7.041-10.622-13.976-17.787-20.564
		c6.502-8.064,12.639-17.333,18.119-27.612l31.966,16.007C324.295,286.425,313.19,297.449,299.773,305.034z"/>
	<path class="st11" d="M373.667,190.833c-10.371-31.175-32.261-56.445-61.637-71.156c-8.894-4.454-18.282-7.801-27.926-9.991
		c-1.038-1.714-2.546-3.171-4.471-4.135c-5.432-2.72-12.041-0.522-14.761,4.91c-2.72,5.432-0.522,12.041,4.91,14.761
		c3.289,1.647,7.006,1.481,10.034-0.105c8.651,1.899,17.075,4.873,25.049,8.866c25.556,12.797,44.598,34.78,53.62,61.899
		c9.022,27.12,6.942,56.129-5.855,81.685c-12.797,25.556-34.78,44.598-61.899,53.62c-27.121,9.021-56.129,6.942-81.685-5.855
		c-7.699-3.855-14.885-8.618-21.405-14.151c-0.013-4.02-2.226-7.887-6.066-9.81c-5.432-2.72-12.041-0.522-14.761,4.91
		c-2.72,5.432-0.522,12.041,4.91,14.761c1.339,0.671,2.75,1.04,4.157,1.138c7.86,6.879,16.605,12.754,26,17.459
		c17.356,8.691,36.094,13.081,54.955,13.081c13.063,0,26.188-2.107,38.944-6.351c31.175-10.371,56.445-32.261,71.156-61.638
		S384.037,222.008,373.667,190.833z"/>
	<path class="st2" d="M148.504,299.609l2.504,0.596l-2.504,0.599c-14.638,3.513-26.063,14.462-29.74,28.481l-0.627,2.394
		l-0.621-2.394c-3.674-14.018-15.105-24.968-29.748-28.481l-2.493-0.599l2.493-0.596c14.643-3.514,26.074-14.467,29.748-28.481
		l0.621-2.396l0.627,2.396C122.442,285.142,133.867,296.095,148.504,299.609L148.504,299.609z"/>
	<path class="st3" d="M200.337,137.507l1.953,0.465l-1.953,0.467c-11.42,2.741-20.333,11.283-23.202,22.22l-0.489,1.868
		l-0.485-1.868c-2.866-10.937-11.784-19.479-23.208-22.22l-1.945-0.467l1.945-0.465c11.424-2.742,20.342-11.287,23.208-22.22
		l0.485-1.869l0.489,1.869C180.004,126.22,188.917,134.765,200.337,137.507L200.337,137.507z"/>
	<path class="st3" d="M231.29,94.876l1.063,0.253l-1.063,0.254c-6.216,1.492-11.068,6.141-12.629,12.094l-0.266,1.017l-0.264-1.017
		c-1.56-5.953-6.414-10.603-12.632-12.094l-1.059-0.254l1.059-0.253c6.218-1.492,11.072-6.143,12.632-12.095l0.264-1.017
		l0.266,1.017C220.223,88.733,225.074,93.384,231.29,94.876L231.29,94.876z"/>
	<path class="st10" d="M399.823,358.068l2.296,0.547l-2.296,0.549c-13.423,3.221-23.9,13.262-27.272,26.117l-0.575,2.195
		l-0.569-2.195c-3.369-12.855-13.851-22.896-27.279-26.117l-2.286-0.549l2.286-0.547c13.428-3.223,23.91-13.266,27.279-26.118
		l0.569-2.197l0.575,2.197C375.923,344.802,386.4,354.846,399.823,358.068L399.823,358.068z"/>
	<path class="st10" d="M409.767,308.537l1.496,0.356l-1.496,0.358c-8.748,2.099-15.576,8.643-17.773,17.021l-0.375,1.431
		l-0.371-1.431c-2.195-8.378-9.027-14.922-17.778-17.021l-1.49-0.358l1.49-0.356c8.751-2.1,15.583-8.646,17.778-17.021l0.371-1.432
		l0.375,1.432C394.192,299.891,401.02,306.437,409.767,308.537L409.767,308.537z"/>
</g>
</svg>
